# xmcd CD database file
# Copyright (C) 1995 Ti Kan
#
# Track frame offsets:
#	150
#	26172
#	46099
#	69353
#	113158
#	135636
#	158545
#	185836
#	204353
#	230965
#	256154
#
# Disc length: 4157 seconds
#
# Revision: 1
# Processed by: cddbd v1.4b41PL1 Copyright (c) Steve Scherf et al.
# Submitted via: xmcd 1.4
#
DISCID=94103b0b
DTITLE=Little Georgie and the Shuffling Hungarians/Live from Styleen's 
DTITLE=Rhythm Palace (1 of 2)
DYEAR=1900
DGENRE=
TTITLE0=Intro/Come Together
TTITLE1=Gutbucket
TTITLE2=Georgie's Boogie
TTITLE3=Saints Medley
TTITLE4=Hang Tough
TTITLE5=Y'all Learned to Rock from Me/Meatman Medley
TTITLE6=One Helluva Nerve
TTITLE7=Lord Don't Move My Mountain
TTITLE8=(Working on my) Addictions
TTITLE9=Brassy Bessie
TTITLE10=Ballade of Little Georgie
EXTD=This Syracuse bar band plays one hot set of New Orleans\nstyle mu
EXTD=sic.
EXTT0=
EXTT1=
EXTT2=
EXTT3=Saints\nMardi Gras in New Orleans\nIko Iko\n
EXTT4=
EXTT5=
EXTT6=
EXTT7=
EXTT8=
EXTT9=
EXTT10=
PLAYORDER=
